<svg width="606" height="1284" viewBox="0 0 606 1284" fill="none" xmlns="http://www.w3.org/2000/svg">
<g id="Ops Manager Managed Three-Node Replica Set">
<g id="MongoDB Ops Manager">
<rect id="Shape" x="191.5" y="386" width="224" height="128" rx="6" fill="#2563EB" stroke="#1E3A8A" stroke-width="4" stroke-linecap="round"/>
<text id="Text" fill="white" style="white-space: pre" xml:space="preserve" font-family="Inter" font-size="16" font-weight="500" letter-spacing="-0.011em"><tspan x="214.154" y="455.818">MongoDB Ops Manager</tspan></text>
</g>
<g id="DBA / Operations">
<rect id="Shape_2" x="191.5" y="2" width="224" height="128" rx="6" fill="#475569" stroke="#1E293B" stroke-width="4" stroke-linecap="round"/>
<text id="Text_2" fill="white" style="white-space: pre" xml:space="preserve" font-family="Inter" font-size="16" font-weight="500" letter-spacing="-0.011em"><tspan x="238.812" y="71.8182">DBA / Operations</tspan></text>
</g>
<g id="Primary">
<rect id="Shape_3" x="191.5" y="770" width="224" height="128" rx="6" fill="#16A34A" stroke="#14532D" stroke-width="4" stroke-linecap="round"/>
<text id="Text_3" fill="white" style="white-space: pre" xml:space="preserve" font-family="Inter" font-size="16" font-weight="500" letter-spacing="-0.011em"><tspan x="274.489" y="839.818">Primary</tspan></text>
</g>
<g id="Secondary 1">
<rect id="Shape_4" x="31" y="1154" width="224" height="128" rx="6" fill="#16A34A" stroke="#14532D" stroke-width="4" stroke-linecap="round"/>
<text id="Text_4" fill="white" style="white-space: pre" xml:space="preserve" font-family="Inter" font-size="16" font-weight="500" letter-spacing="-0.011em"><tspan x="96.7003" y="1223.82">Secondary 1</tspan></text>
</g>
<g id="Secondary 2">
<rect id="Shape_5" x="351" y="1154" width="224" height="128" rx="6" fill="#16A34A" stroke="#14532D" stroke-width="4" stroke-linecap="round"/>
<text id="Text_5" fill="white" style="white-space: pre" xml:space="preserve" font-family="Inter" font-size="16" font-weight="500" letter-spacing="-0.011em"><tspan x="415.575" y="1223.82">Secondary 2</tspan></text>
</g>
<g id="Administers">
<path id="Shape_6" d="M301.5 237.25C301.5 238.355 302.395 239.25 303.5 239.25C304.605 239.25 305.5 238.355 305.5 237.25H303.5H301.5ZM305.5 278.25C305.5 277.145 304.605 276.25 303.5 276.25C302.395 276.25 301.5 277.145 301.5 278.25H303.5H305.5ZM302.086 378.914C302.867 379.695 304.133 379.695 304.914 378.914L317.642 366.186C318.423 365.405 318.423 364.139 317.642 363.358C316.861 362.577 315.595 362.577 314.814 363.358L303.5 374.672L292.186 363.358C291.405 362.577 290.139 362.577 289.358 363.358C288.577 364.139 288.577 365.405 289.358 366.186L302.086 378.914ZM303.5 138H301.5V237.25H303.5H305.5V138H303.5ZM303.5 278.25H301.5V377.5H303.5H305.5V278.25H303.5Z" fill="#757575"/>
<g id="Text Background">
<text id="Text_6" fill="black" fill-opacity="0.8" style="white-space: pre" xml:space="preserve" font-family="Inter" font-size="16" font-weight="500" letter-spacing="-0.011em"><tspan x="258.732" y="263.568">Administers</tspan></text>
</g>
</g>
<g id="Manages and monitors">
<path id="Shape_7" d="M301.5 621.25C301.5 622.355 302.395 623.25 303.5 623.25C304.605 623.25 305.5 622.355 305.5 621.25H303.5H301.5ZM305.5 662.25C305.5 661.145 304.605 660.25 303.5 660.25C302.395 660.25 301.5 661.145 301.5 662.25H303.5H305.5ZM302.086 762.914C302.867 763.695 304.133 763.695 304.914 762.914L317.642 750.186C318.423 749.405 318.423 748.139 317.642 747.358C316.861 746.577 315.595 746.577 314.814 747.358L303.5 758.672L292.186 747.358C291.405 746.577 290.139 746.577 289.358 747.358C288.577 748.139 288.577 749.405 289.358 750.186L302.086 762.914ZM303.5 522H301.5V621.25H303.5H305.5V522H303.5ZM303.5 662.25H301.5V761.5H303.5H305.5V662.25H303.5Z" fill="#757575"/>
<g id="Text Background_2">
<text id="Text_7" fill="black" fill-opacity="0.8" style="white-space: pre" xml:space="preserve" font-family="Inter" font-size="16" font-weight="500" letter-spacing="-0.011em"><tspan x="217.828" y="647.568">Manages and monitors</tspan></text>
</g>
</g>
<g id="Manages and monitors_2">
<path id="Shape_8" d="M92.5 797.5C92.5 798.605 93.3954 799.5 94.5 799.5C95.6046 799.5 96.5 798.605 96.5 797.5H94.5H92.5ZM96.5 838.5C96.5 837.395 95.6046 836.5 94.5 836.5C93.3954 836.5 92.5 837.395 92.5 838.5H94.5H96.5ZM104.252 1146.91C105.033 1147.7 106.3 1147.7 107.081 1146.91L119.809 1134.19C120.59 1133.41 120.59 1132.14 119.809 1131.36C119.028 1130.58 117.761 1130.58 116.98 1131.36L105.667 1142.67L94.353 1131.36C93.5719 1130.58 92.3056 1130.58 91.5245 1131.36C90.7435 1132.14 90.7435 1133.41 91.5245 1134.19L104.252 1146.91ZM247.5 522H245.5V538H247.5H249.5V522H247.5ZM223.5 562V560H118.5V562V564H223.5V562ZM94.5 586H92.5V797.5H94.5H96.5V586H94.5ZM94.5 838.5H92.5V1068.42H94.5H96.5V838.5H94.5ZM105.667 1079.58H103.667V1145.5H105.667H107.667V1079.58H105.667ZM94.5 1068.42H92.5C92.5 1072.6 95.8952 1076 100.083 1076V1074V1072C98.1043 1072 96.5 1070.4 96.5 1068.42H94.5ZM118.5 562V560C104.141 560 92.5 571.641 92.5 586H94.5H96.5C96.5 573.85 106.35 564 118.5 564V562ZM100.083 1074V1076C102.062 1076 103.667 1077.6 103.667 1079.58H105.667H107.667C107.667 1075.4 104.271 1072 100.083 1072V1074ZM247.5 538H245.5C245.5 550.15 235.65 560 223.5 560V562V564C237.859 564 249.5 552.359 249.5 538H247.5Z" fill="#757575"/>
<g id="Text Background_3">
<text id="Text_8" fill="black" fill-opacity="0.8" style="white-space: pre" xml:space="preserve" font-family="Inter" font-size="16" font-weight="500" letter-spacing="-0.011em"><tspan x="8.82825" y="823.818">Manages and monitors</tspan></text>
</g>
</g>
<g id="Manages and monitors_3">
<path id="Shape_9" d="M509.5 797.5C509.5 798.605 510.395 799.5 511.5 799.5C512.605 799.5 513.5 798.605 513.5 797.5H511.5H509.5ZM513.5 838.5C513.5 837.395 512.605 836.5 511.5 836.5C510.395 836.5 509.5 837.395 509.5 838.5H511.5H513.5ZM498.919 1146.91C499.7 1147.7 500.967 1147.7 501.748 1146.91L514.475 1134.19C515.257 1133.41 515.257 1132.14 514.475 1131.36C513.694 1130.58 512.428 1130.58 511.647 1131.36L500.333 1142.67L489.02 1131.36C488.239 1130.58 486.972 1130.58 486.191 1131.36C485.41 1132.14 485.41 1133.41 486.191 1134.19L498.919 1146.91ZM359.5 522H357.5V538H359.5H361.5V522H359.5ZM383.5 562V564H487.5V562V560H383.5V562ZM511.5 586H509.5V797.5H511.5H513.5V586H511.5ZM511.5 838.5H509.5V1068.42H511.5H513.5V838.5H511.5ZM500.333 1079.58H498.333V1145.5H500.333H502.333V1079.58H500.333ZM511.5 1068.42H509.5C509.5 1070.4 507.896 1072 505.917 1072V1074V1076C510.105 1076 513.5 1072.6 513.5 1068.42H511.5ZM487.5 562V564C499.65 564 509.5 573.85 509.5 586H511.5H513.5C513.5 571.641 501.859 560 487.5 560V562ZM505.917 1074V1072C501.729 1072 498.333 1075.4 498.333 1079.58H500.333H502.333C502.333 1077.6 503.938 1076 505.917 1076V1074ZM359.5 538H357.5C357.5 552.359 369.141 564 383.5 564V562V560C371.35 560 361.5 550.15 361.5 538H359.5Z" fill="#757575"/>
<g id="Text Background_4">
<text id="Text_9" fill="black" fill-opacity="0.8" style="white-space: pre" xml:space="preserve" font-family="Inter" font-size="16" font-weight="500" letter-spacing="-0.011em"><tspan x="425.828" y="823.818">Manages and monitors</tspan></text>
</g>
</g>
<g id="Replication">
<path id="Shape_10" d="M226.833 989.5C226.833 990.605 227.729 991.5 228.833 991.5C229.938 991.5 230.833 990.605 230.833 989.5H228.833H226.833ZM230.833 1030.5C230.833 1029.4 229.938 1028.5 228.833 1028.5C227.729 1028.5 226.833 1029.4 226.833 1030.5H228.833H230.833ZM178.919 1146.91C179.7 1147.7 180.966 1147.7 181.748 1146.91L194.475 1134.19C195.256 1133.41 195.256 1132.14 194.475 1131.36C193.694 1130.58 192.428 1130.58 191.647 1131.36L180.333 1142.67L169.02 1131.36C168.239 1130.58 166.972 1130.58 166.191 1131.36C165.41 1132.14 165.41 1133.41 166.191 1134.19L178.919 1146.91ZM266.167 906H264.167V927.333H266.167H268.167V906H266.167ZM228.833 964.667H226.833V989.5H228.833H230.833V964.667H228.833ZM228.833 1030.5H226.833V1050H228.833H230.833V1030.5H228.833ZM204.833 1074V1072H204.333V1074V1076H204.833V1074ZM180.333 1098H178.333V1145.5H180.333H182.333V1098H180.333ZM228.833 1050H226.833C226.833 1062.15 216.984 1072 204.833 1072V1074V1076C219.193 1076 230.833 1064.36 230.833 1050H228.833ZM247.5 946V944C236.086 944 226.833 953.253 226.833 964.667H228.833H230.833C230.833 955.462 238.295 948 247.5 948V946ZM204.333 1074V1072C189.974 1072 178.333 1083.64 178.333 1098H180.333H182.333C182.333 1085.85 192.183 1076 204.333 1076V1074ZM266.167 927.333H264.167C264.167 936.538 256.705 944 247.5 944V946V948C258.914 948 268.167 938.747 268.167 927.333H266.167Z" fill="#757575"/>
<g id="Text Background_5">
<text id="Text_10" fill="black" fill-opacity="0.8" style="white-space: pre" xml:space="preserve" font-family="Inter" font-size="16" font-weight="500" letter-spacing="-0.011em"><tspan x="187.331" y="1015.82">Replication</tspan></text>
</g>
</g>
<g id="Replication_2">
<path id="Shape_11" d="M375.667 989.5C375.667 990.605 376.562 991.5 377.667 991.5C378.771 991.5 379.667 990.605 379.667 989.5H377.667H375.667ZM379.667 1030.5C379.667 1029.4 378.771 1028.5 377.667 1028.5C376.562 1028.5 375.667 1029.4 375.667 1030.5H377.667H379.667ZM424.252 1146.91C425.034 1147.7 426.3 1147.7 427.081 1146.91L439.809 1134.19C440.59 1133.41 440.59 1132.14 439.809 1131.36C439.028 1130.58 437.761 1130.58 436.98 1131.36L425.667 1142.67L414.353 1131.36C413.572 1130.58 412.306 1130.58 411.525 1131.36C410.743 1132.14 410.743 1133.41 411.525 1134.19L424.252 1146.91ZM340.833 906H338.833V927.583H340.833H342.833V906H340.833ZM377.667 964.417H375.667V989.5H377.667H379.667V964.417H377.667ZM377.667 1030.5H375.667V1050H377.667H379.667V1030.5H377.667ZM425.667 1098H423.667V1145.5H425.667H427.667V1098H425.667ZM377.667 1050H375.667C375.667 1064.36 387.307 1076 401.667 1076V1074V1072C389.516 1072 379.667 1062.15 379.667 1050H377.667ZM359.25 946V948C368.317 948 375.667 955.35 375.667 964.417H377.667H379.667C379.667 953.141 370.526 944 359.25 944V946ZM401.667 1074V1076C413.817 1076 423.667 1085.85 423.667 1098H425.667H427.667C427.667 1083.64 416.026 1072 401.667 1072V1074ZM340.833 927.583H338.833C338.833 938.859 347.974 948 359.25 948V946V944C350.183 944 342.833 936.65 342.833 927.583H340.833Z" fill="#757575"/>
<g id="Text Background_6">
<text id="Text_11" fill="black" fill-opacity="0.8" style="white-space: pre" xml:space="preserve" font-family="Inter" font-size="16" font-weight="500" letter-spacing="-0.011em"><tspan x="336.164" y="1015.82">Replication</tspan></text>
</g>
</g>
</g>
</svg>

