<svg width="1440" height="900" viewBox="0 0 1440 900" fill="none" xmlns="http://www.w3.org/2000/svg">
<g id="Ops Manager Managed Three-Node Replica Set">
<rect width="1440" height="900" fill="#F8FAFC"/>
<rect id="Rectangle" width="1440" height="104" fill="#0F172A"/>
<text id="MONGODB REFERENCE ARCHITECTURE" fill="#93C5FD" style="white-space: pre" xml:space="preserve" font-family="Inter" font-size="13" font-weight="600" letter-spacing="0em"><tspan x="64" y="34.7273">MONGODB REFERENCE ARCHITECTURE</tspan></text>
<text id="Ops Manager&#226;&#128;&#147;managed three-node replica set" fill="white" style="white-space: pre" xml:space="preserve" font-family="Inter" font-size="30" font-weight="600" letter-spacing="0em"><tspan x="64" y="76.9091">Ops Manager&#x2013;managed three-node replica set</tspan></text>
<rect id="Rectangle_2" x="1186" y="36" width="190" height="30" rx="15" fill="#1E293B"/>
<text id="SANITIZED EXAMPLE" fill="#CBD5E1" style="white-space: pre" xml:space="preserve" font-family="Inter" font-size="13" font-weight="500" letter-spacing="0em"><tspan x="1214.86" y="52.7273">SANITIZED EXAMPLE</tspan></text>
<text id="CONTROL PLANE" fill="#1E40AF" style="white-space: pre" xml:space="preserve" font-family="Inter" font-size="13" font-weight="600" letter-spacing="0em"><tspan x="72" y="144.727">CONTROL PLANE</tspan></text>
<rect id="Rectangle_3" x="72.5" y="156.5" width="1295" height="177" rx="13.5" fill="#EFF6FF" stroke="#BFDBFE"/>
<rect id="Rectangle_4" x="104.5" y="196.5" width="245" height="93" rx="11.5" fill="white" stroke="#BFDBFE"/>
<rect id="Rectangle_5" x="124" y="216" width="52" height="52" rx="26" fill="#0F172A"/>
<text id="DBA" fill="white" style="white-space: pre" xml:space="preserve" font-family="Inter" font-size="14" font-weight="600" letter-spacing="0em"><tspan x="135.262" y="242.591">DBA</tspan></text>
<text id="DBA / Operations" fill="#0F172A" style="white-space: pre" xml:space="preserve" font-family="Inter" font-size="16" font-weight="600" letter-spacing="0em"><tspan x="194" y="229.318">DBA / Operations</tspan></text>
<text id="Administers Ops Manager" fill="#64748B" style="white-space: pre" xml:space="preserve" font-family="Inter" font-size="12" letter-spacing="0em"><tspan x="194" y="254.864">Administers Ops Manager</tspan></text>
<rect id="Rectangle_6" x="468.75" y="180.75" width="788.5" height="124.5" rx="11.25" fill="white" stroke="#93C5FD" stroke-width="1.5"/>
<rect id="Rectangle_7" x="468" y="180" width="10" height="126" rx="5" fill="#2563EB"/>
<text id="MongoDB Ops Manager" fill="#0F172A" style="white-space: pre" xml:space="preserve" font-family="Inter" font-size="23" font-weight="600" letter-spacing="0em"><tspan x="504" y="221.364">MongoDB Ops Manager</tspan></text>
<text id="Centralized lifecycle management for the deployment" fill="#64748B" style="white-space: pre" xml:space="preserve" font-family="Inter" font-size="14" letter-spacing="0em"><tspan x="504" y="245.591">Centralized lifecycle management for the deployment</tspan></text>
<rect id="Rectangle_8" x="504" y="260" width="112" height="30" rx="15" fill="#EFF6FF"/>
<text id="AUTOMATION" fill="#1E40AF" style="white-space: pre" xml:space="preserve" font-family="Inter" font-size="13" font-weight="500" letter-spacing="0em"><tspan x="515.966" y="276.727">AUTOMATION</tspan></text>
<rect id="Rectangle_9" x="628" y="260" width="116" height="30" rx="15" fill="#EFF6FF"/>
<text id="MONITORING" fill="#1E40AF" style="white-space: pre" xml:space="preserve" font-family="Inter" font-size="13" font-weight="500" letter-spacing="0em"><tspan x="643.871" y="276.727">MONITORING</tspan></text>
<rect id="Rectangle_10" x="756" y="260" width="88" height="30" rx="15" fill="#EFF6FF"/>
<text id="BACKUP" fill="#1E40AF" style="white-space: pre" xml:space="preserve" font-family="Inter" font-size="13" font-weight="500" letter-spacing="0em"><tspan x="773.372" y="276.727">BACKUP</tspan></text>
<rect id="Rectangle_11" x="856" y="260" width="92" height="30" rx="15" fill="#EFF6FF"/>
<text id="ALERTING" fill="#1E40AF" style="white-space: pre" xml:space="preserve" font-family="Inter" font-size="13" font-weight="500" letter-spacing="0em"><tspan x="869.963" y="276.727">ALERTING</tspan></text>
<text id="Administers" fill="#1E40AF" style="white-space: pre" xml:space="preserve" font-family="Inter" font-size="12" font-weight="500" letter-spacing="0em"><tspan x="370.764" y="223.864">Administers</tspan></text>
<text id="DATA PLANE" fill="#047857" style="white-space: pre" xml:space="preserve" font-family="Inter" font-size="13" font-weight="600" letter-spacing="0em"><tspan x="72" y="378.727">DATA PLANE</tspan></text>
<rect id="Rectangle_12" x="72.5" y="390.5" width="1295" height="419" rx="13.5" fill="white" stroke="#CBD5E1"/>
<text id="Replica set" fill="#0F172A" style="white-space: pre" xml:space="preserve" font-family="Inter" font-size="22" font-weight="600" letter-spacing="0em"><tspan x="104" y="439.5">Replica set</tspan></text>
<rect id="Rectangle_13" x="242" y="416" width="54" height="30" rx="15" fill="#ECFDF5"/>
<text id="rs0" fill="#047857" style="white-space: pre" xml:space="preserve" font-family="Inter" font-size="13" font-weight="500" letter-spacing="0em"><tspan x="258.825" y="432.727">rs0</tspan></text>
<text id="High availability through one primary and two secondary members" fill="#64748B" style="white-space: pre" xml:space="preserve" font-family="Inter" font-size="14" letter-spacing="0em"><tspan x="104" y="465.591">High availability through one primary and two secondary members</tspan></text>
<text id="Automation &#194;&#183; Monitoring &#194;&#183; Backup" fill="#1E40AF" style="white-space: pre" xml:space="preserve" font-family="Inter" font-size="13" font-weight="500" letter-spacing="0em"><tspan x="872" y="440.727">Automation &#xb7; Monitoring &#xb7; Backup</tspan></text>
<rect id="Rectangle_14" x="124" y="546" width="320" height="160" rx="12" fill="#E2E8F0"/>
<rect id="Rectangle_15" x="120.5" y="540.5" width="319" height="159" rx="11.5" fill="white" stroke="#CBD5E1"/>
<rect id="Rectangle_16" x="120" y="540" width="8" height="160" rx="4" fill="#059669"/>
<rect id="Rectangle_17" x="144" y="564" width="54" height="54" rx="10" fill="#ECFDF5"/>
<g id="Frame">
<path id="Vector" d="M171 585C177.627 585 183 582.761 183 580C183 577.239 177.627 575 171 575C164.373 575 159 577.239 159 580C159 582.761 164.373 585 171 585Z" fill="#059669"/>
<path id="Vector_2" opacity="0.85" d="M159 580V590C159 592.8 164.4 595 171 595C177.6 595 183 592.8 183 590V580" fill="#059669"/>
<path id="Vector_3" opacity="0.7" d="M159 591V601C159 603.8 164.4 606 171 606C177.6 606 183 603.8 183 601V591" fill="#059669"/>
</g>
<text id="Secondary 1" fill="#0F172A" style="white-space: pre" xml:space="preserve" font-family="Inter" font-size="20" font-weight="600" letter-spacing="0em"><tspan x="216" y="581.273">Secondary 1</tspan></text>
<text id="mongod &#194;&#183; Member 2" fill="#64748B" style="white-space: pre" xml:space="preserve" font-family="Inter" font-size="14" letter-spacing="0em"><tspan x="216" y="606.591">mongod &#xb7; Member 2</tspan></text>
<rect id="Rectangle_18" x="216" y="626" width="132" height="30" rx="15" fill="#ECFDF5"/>
<text id="REPLICA MEMBER" fill="#059669" style="white-space: pre" xml:space="preserve" font-family="Inter" font-size="13" font-weight="500" letter-spacing="0em"><tspan x="225.354" y="642.727">REPLICA MEMBER</tspan></text>
<rect id="Rectangle_19" x="564" y="546" width="320" height="160" rx="12" fill="#E2E8F0"/>
<rect id="Rectangle_20" x="560.5" y="540.5" width="319" height="159" rx="11.5" fill="white" stroke="#CBD5E1"/>
<rect id="Rectangle_21" x="560" y="540" width="8" height="160" rx="4" fill="#2563EB"/>
<rect id="Rectangle_22" x="584" y="564" width="54" height="54" rx="10" fill="#EFF6FF"/>
<g id="Frame_2">
<path id="Vector_4" d="M611 585C617.627 585 623 582.761 623 580C623 577.239 617.627 575 611 575C604.373 575 599 577.239 599 580C599 582.761 604.373 585 611 585Z" fill="#2563EB"/>
<path id="Vector_5" opacity="0.85" d="M599 580V590C599 592.8 604.4 595 611 595C617.6 595 623 592.8 623 590V580" fill="#2563EB"/>
<path id="Vector_6" opacity="0.7" d="M599 591V601C599 603.8 604.4 606 611 606C617.6 606 623 603.8 623 601V591" fill="#2563EB"/>
</g>
<text id="Primary" fill="#0F172A" style="white-space: pre" xml:space="preserve" font-family="Inter" font-size="20" font-weight="600" letter-spacing="0em"><tspan x="656" y="581.273">Primary</tspan></text>
<text id="mongod &#194;&#183; Member 1" fill="#64748B" style="white-space: pre" xml:space="preserve" font-family="Inter" font-size="14" letter-spacing="0em"><tspan x="656" y="606.591">mongod &#xb7; Member 1</tspan></text>
<rect id="Rectangle_23" x="656" y="626" width="112" height="30" rx="15" fill="#EFF6FF"/>
<text id="WRITE TARGET" fill="#2563EB" style="white-space: pre" xml:space="preserve" font-family="Inter" font-size="13" font-weight="500" letter-spacing="0em"><tspan x="664.399" y="642.727">WRITE TARGET</tspan></text>
<rect id="Rectangle_24" x="1004" y="546" width="320" height="160" rx="12" fill="#E2E8F0"/>
<rect id="Rectangle_25" x="1000.5" y="540.5" width="319" height="159" rx="11.5" fill="white" stroke="#CBD5E1"/>
<rect id="Rectangle_26" x="1000" y="540" width="8" height="160" rx="4" fill="#059669"/>
<rect id="Rectangle_27" x="1024" y="564" width="54" height="54" rx="10" fill="#ECFDF5"/>
<g id="Frame_3">
<path id="Vector_7" d="M1051 585C1057.63 585 1063 582.761 1063 580C1063 577.239 1057.63 575 1051 575C1044.37 575 1039 577.239 1039 580C1039 582.761 1044.37 585 1051 585Z" fill="#059669"/>
<path id="Vector_8" opacity="0.85" d="M1039 580V590C1039 592.8 1044.4 595 1051 595C1057.6 595 1063 592.8 1063 590V580" fill="#059669"/>
<path id="Vector_9" opacity="0.7" d="M1039 591V601C1039 603.8 1044.4 606 1051 606C1057.6 606 1063 603.8 1063 601V591" fill="#059669"/>
</g>
<text id="Secondary 2" fill="#0F172A" style="white-space: pre" xml:space="preserve" font-family="Inter" font-size="20" font-weight="600" letter-spacing="0em"><tspan x="1096" y="581.273">Secondary 2</tspan></text>
<text id="mongod &#194;&#183; Member 3" fill="#64748B" style="white-space: pre" xml:space="preserve" font-family="Inter" font-size="14" letter-spacing="0em"><tspan x="1096" y="606.591">mongod &#xb7; Member 3</tspan></text>
<rect id="Rectangle_28" x="1096" y="626" width="132" height="30" rx="15" fill="#ECFDF5"/>
<text id="REPLICA MEMBER_2" fill="#059669" style="white-space: pre" xml:space="preserve" font-family="Inter" font-size="13" font-weight="500" letter-spacing="0em"><tspan x="1105.35" y="642.727">REPLICA MEMBER</tspan></text>
<text id="Oplog replication" fill="#047857" style="white-space: pre" xml:space="preserve" font-family="Inter" font-size="13" font-weight="500" letter-spacing="0em"><tspan x="667.067" y="736.727">Oplog replication</tspan></text>
<text id="Management traffic" fill="#64748B" style="white-space: pre" xml:space="preserve" font-family="Inter" font-size="13" letter-spacing="0em"><tspan x="154" y="780.727">Management traffic</tspan></text>
<text id="Replication flow" fill="#64748B" style="white-space: pre" xml:space="preserve" font-family="Inter" font-size="13" letter-spacing="0em"><tspan x="398" y="780.727">Replication flow</tspan></text>
<text id="Generic topology &#226;&#128;&#148; no environment-specific identifiers" fill="#64748B" style="white-space: pre" xml:space="preserve" font-family="Inter" font-size="13" letter-spacing="0em"><tspan x="980.794" y="780.727">Generic topology &#x2014; no environment-specific identifiers</tspan></text>
<g id="Architecture connectors">
<path id="Vector_10" d="M350 243H454" stroke="#2563EB" stroke-width="2"/>
<path id="Vector_11" d="M454 237L466 243L454 249V237Z" fill="#2563EB"/>
<path id="Vector_12" d="M862 306V492M862 492H280V532M862 492H1160V532M720 492V532" stroke="#2563EB" stroke-width="2" stroke-dasharray="7 7"/>
<path id="Vector_13" d="M280 497C282.761 497 285 494.761 285 492C285 489.239 282.761 487 280 487C277.239 487 275 489.239 275 492C275 494.761 277.239 497 280 497Z" fill="#2563EB"/>
<path id="Vector_14" d="M720 497C722.761 497 725 494.761 725 492C725 489.239 722.761 487 720 487C717.239 487 715 489.239 715 492C715 494.761 717.239 497 720 497Z" fill="#2563EB"/>
<path id="Vector_15" d="M1160 497C1162.76 497 1165 494.761 1165 492C1165 489.239 1162.76 487 1160 487C1157.24 487 1155 489.239 1155 492C1155 494.761 1157.24 497 1160 497Z" fill="#2563EB"/>
<path id="Vector_16" d="M560 748H442" stroke="#059669" stroke-width="3"/>
<path id="Vector_17" d="M442 742L430 748L442 754V742Z" fill="#059669"/>
<path id="Vector_18" d="M880 748H998" stroke="#059669" stroke-width="3"/>
<path id="Vector_19" d="M998 742L1010 748L998 754V742Z" fill="#059669"/>
</g>
</g>
</svg>

